<svg width="38" height="36" viewBox="0 0 38 36" fill="none" xmlns="http://www.w3.org/2000/svg">
<path fill-rule="evenodd" clip-rule="evenodd" d="M23.3043 6.03758C24.8692 6.63667 25.348 8.72307 25.988 9.3937C26.6279 10.0643 27.5436 10.2923 28.0503 10.2923C30.7433 10.2923 32.9265 12.3922 32.9265 14.9808V23.617C32.9265 27.0894 29.998 29.906 26.3877 29.906H10.8C7.18819 29.906 4.26123 27.0894 4.26123 23.617V14.9808C4.26123 12.3922 6.44444 10.2923 9.13743 10.2923C9.64255 10.2923 10.5583 10.0643 11.1998 9.3937C11.8397 8.72307 12.3169 6.63667 13.8819 6.03758C15.4484 5.43848 21.7393 5.43848 23.3043 6.03758Z" stroke="#3A3A55" stroke-opacity="0.8" stroke-width="1.5" stroke-linecap="round" stroke-linejoin="round"/>
<path d="M27.1091 14.1577H27.123" stroke="#3A3A55" stroke-opacity="0.8" stroke-width="2" stroke-linecap="round" stroke-linejoin="round"/>
<path fill-rule="evenodd" clip-rule="evenodd" d="M23.519 19.5645C23.519 16.9475 21.3141 14.8268 18.5933 14.8268C15.8724 14.8268 13.6675 16.9475 13.6675 19.5645C13.6675 22.1814 15.8724 24.3021 18.5933 24.3021C21.3141 24.3021 23.519 22.1814 23.519 19.5645Z" stroke="#3A3A55" stroke-opacity="0.8" stroke-width="1.5" stroke-linecap="round" stroke-linejoin="round"/>
</svg>
