<svg width="30" height="31" viewBox="0 0 30 31" fill="none" xmlns="http://www.w3.org/2000/svg">
<path d="M11.4465 26.393V22.5595C11.4465 21.5845 12.2414 20.7922 13.2263 20.7857H16.8339C17.8234 20.7857 18.6256 21.5799 18.6256 22.5595V22.5595V26.4049C18.6254 27.2327 19.2928 27.9093 20.1288 27.9287H22.5339C24.9314 27.9287 26.875 26.0046 26.875 23.631V23.631V12.726C26.8622 11.7922 26.4193 10.9154 25.6725 10.345L17.4472 3.78534C16.0062 2.64317 13.9578 2.64317 12.5168 3.78534L4.32753 10.3569C3.57782 10.925 3.13423 11.8033 3.125 12.7379V23.631C3.125 26.0046 5.06859 27.9287 7.46614 27.9287H9.8712C10.7279 27.9287 11.4225 27.2411 11.4225 26.393V26.393" stroke="#8C84E2" stroke-width="2" stroke-linecap="round" stroke-linejoin="round"/>
</svg>
