<svg width="60" height="60" viewBox="0 0 60 60" fill="none" xmlns="http://www.w3.org/2000/svg">
<g id="Iconly/Bold/Play">
<g id="Play">
<path id="Play_2" fill-rule="evenodd" clip-rule="evenodd" d="M5 30.0145C5 16.2156 16.221 5 30 5C43.779 5 55 16.2156 55 30.0145C55 43.7844 43.779 55 30 55C16.221 55 5 43.7844 5 30.0145ZM39.1699 32.5448C39.4353 32.2795 39.7732 31.8695 39.8456 31.773C40.2317 31.2665 40.4247 30.6394 40.4247 30.0147C40.4247 29.3128 40.2075 28.6615 39.7973 28.1309C39.7637 28.0973 39.6978 28.0256 39.612 27.9322C39.4515 27.7575 39.2211 27.5068 39.001 27.2867C37.0222 25.1642 31.8581 21.691 29.1554 20.6297C28.7452 20.4633 27.7075 20.0991 27.1525 20.075C26.6216 20.075 26.1149 20.1955 25.6322 20.4367C25.0289 20.7744 24.5463 21.3051 24.2809 21.9322C24.112 22.3663 23.8465 23.6688 23.8465 23.6929C23.5811 25.116 23.4363 27.4314 23.4363 29.9881C23.4363 32.4266 23.5811 34.6432 23.7983 36.0904C23.8042 36.0964 23.825 36.1999 23.8572 36.3607C23.9553 36.8495 24.1595 37.8678 24.3774 38.2853C24.9083 39.2983 25.9459 39.9254 27.056 39.9254H27.1525C27.8764 39.9013 29.3967 39.2742 29.3967 39.2501C31.9546 38.1888 36.9981 34.8844 39.0251 32.6895L39.1699 32.5448Z" fill="#8C84E2"/>
</g>
</g>
</svg>
