<svg width="20" height="10" viewBox="0 0 20 10" fill="none" xmlns="http://www.w3.org/2000/svg">
<path d="M18.0937 1.90636C17.2732 1.08591 16.1604 0.624989 15.0001 0.624989C13.8398 0.624989 12.727 1.08591 11.9065 1.90636L10.0093 3.80355L8.1119 1.90616C7.50005 1.29431 6.7205 0.877632 5.87183 0.708822C5.02316 0.540012 4.1435 0.626652 3.34407 0.957785C2.54464 1.28892 1.86136 1.84967 1.38063 2.56914C0.8999 3.2886 0.643311 4.13446 0.643311 4.99976C0.643311 5.86505 0.8999 6.71091 1.38063 7.43038C1.86136 8.14984 2.54464 8.7106 3.34407 9.04173C4.1435 9.37286 5.02316 9.4595 5.87183 9.29069C6.7205 9.12188 7.50005 8.7052 8.1119 8.09335L10.0091 6.19612L11.9064 8.09335C12.3121 8.50189 12.7945 8.82632 13.3259 9.04803C13.8573 9.26975 14.4272 9.38439 15.003 9.38539C15.5788 9.38638 16.1491 9.27371 16.6812 9.05383C17.2134 8.83395 17.6969 8.5112 18.1041 8.10406C18.5112 7.69693 18.834 7.21343 19.0539 6.68129C19.2738 6.14915 19.3865 5.57884 19.3855 5.00305C19.3846 4.42727 19.27 3.85733 19.0483 3.32593C18.8266 2.79454 18.5022 2.31212 18.0937 1.90636ZM7.22803 7.20964C6.79099 7.64667 6.23417 7.9443 5.62798 8.06487C5.02179 8.18545 4.39346 8.12356 3.82245 7.88703C3.25143 7.65051 2.76337 7.24997 2.42 6.73607C2.07662 6.22216 1.89334 5.61798 1.89334 4.99991C1.89334 4.38185 2.07662 3.77766 2.42 3.26376C2.76337 2.74986 3.25143 2.34932 3.82245 2.1128C4.39346 1.87627 5.02179 1.81438 5.62798 1.93496C6.23417 2.05553 6.79099 2.35315 7.22803 2.79019L9.38428 4.94644V5.0537L7.22803 7.20964ZM17.2096 7.20964C16.6235 7.79568 15.8287 8.12491 14.9999 8.12491C14.1711 8.12491 13.3763 7.79568 12.7902 7.20964L10.634 5.05339V4.9462L12.7902 2.78995C13.0804 2.49977 13.4249 2.26959 13.8041 2.11256C14.1833 1.95552 14.5896 1.8747 15 1.87472C15.4104 1.87473 15.8168 1.95558 16.1959 2.11264C16.5751 2.2697 16.9196 2.49991 17.2098 2.79011C17.4999 3.08031 17.7301 3.42482 17.8871 3.80398C18.0442 4.18314 18.125 4.58952 18.125 4.99991C18.125 5.4103 18.0441 5.81667 17.8871 6.19582C17.73 6.57496 17.4998 6.91946 17.2096 7.20964Z" fill="#3A3A55"/>
</svg>
